<?xml version="1.0" encoding="iso-8859-1"?>
<!-- Uploaded to: SVG Repo, www.svgrepo.com, Generator: SVG Repo Mixer Tools -->
<svg version="1.1" id="Layer_1" xmlns="http://www.w3.org/2000/svg" xmlns:xlink="http://www.w3.org/1999/xlink" 
	 viewBox="0 0 480 480" xml:space="preserve">
<rect x="48" y="136" style="fill:#F2E7D5;" width="384" height="296"/>
<rect x="48" y="136" style="fill:#F7F1E6;" width="24" height="296"/>
<path style="fill:#BD852D;" d="M472,40v64c0,17.68-14.32,32-32,32H40c-17.68,0-32-14.32-32-32V40C8,22.32,22.32,8,40,8h400
	C457.68,8,472,22.32,472,40z"/>
<path style="fill:#CA9D57;" d="M32,120V56c0-17.68,14.32-32,32-32h400c1.288,0,2.52,0.232,3.768,0.376
	C462.288,14.648,451.976,8,440,8H40C22.32,8,8,22.32,8,40v64c0,16.392,12.352,29.736,28.232,31.624
	C33.616,130.984,32,125.704,32,120z"/>
<path style="fill:#BD852D;" d="M472,464v8H8v-8c0-17.68,14.32-32,32-32h400C457.68,432,472,446.32,472,464z"/>
<path style="fill:#CA9D57;" d="M72,432H40c-17.68,0-32,14.32-32,32v8h32v-8C40,446.32,54.32,432,72,432z"/>
<g>
	<path style="fill:#BD852D;" d="M304,136v32c0,8.8-7.2,16-16,16h-96c-8.8,0-16-7.2-16-16v-32H304z"/>
	<path style="fill:#BD852D;" d="M320,416v16H160v-16c0-8.8,7.2-16,16-16h128C312.8,400,320,407.2,320,416z"/>
</g>
<g>
	<path style="fill:#FCB23C;" d="M304,256v96c0,26.48-21.52,48-48,48h-32c-26.48,0-48-21.52-48-48v-96H304z"/>
	<circle style="fill:#FCB23C;" cx="111.68" cy="224.32" r="16.32"/>
</g>
<path style="fill:#132C47;" d="M111.68,248.64c-13.408,0-24.32-10.912-24.32-24.32S98.272,200,111.68,200S136,210.912,136,224.32
	S125.088,248.64,111.68,248.64z M111.68,216c-4.584,0-8.32,3.736-8.32,8.32s3.736,8.32,8.32,8.32c4.584,0,8.32-3.736,8.32-8.32
	S116.264,216,111.68,216z"/>
<circle style="fill:#FCB23C;" cx="111.68" cy="288.32" r="16.32"/>
<path style="fill:#132C47;" d="M111.68,312.64c-13.408,0-24.32-10.912-24.32-24.32S98.272,264,111.68,264S136,274.912,136,288.32
	S125.088,312.64,111.68,312.64z M111.68,280c-4.584,0-8.32,3.736-8.32,8.32s3.736,8.32,8.32,8.32c4.584,0,8.32-3.736,8.32-8.32
	S116.264,280,111.68,280z"/>
<path style="fill:#FCB23C;" d="M400,208v16c0,8.8-7.2,16-16,16h-40v-16c0-8.8,7.2-16,16-16H400z"/>
<g>
	<path style="fill:#132C47;" d="M384,248h-40c-4.416,0-8-3.584-8-8v-16c0-13.232,10.768-24,24-24h40c4.416,0,8,3.584,8,8v16
		C408,237.232,397.232,248,384,248z M352,232h32c4.408,0,8-3.592,8-8v-8h-32c-4.408,0-8,3.592-8,8V232z"/>
	<path style="fill:#132C47;" d="M480,104V40c0-22.056-17.944-40-40-40H40C17.944,0,0,17.944,0,40v64c0,22.056,17.944,40,40,40v280
		c-22.056,0-40,17.944-40,40v8c0,4.416,3.584,8,8,8h464c4.416,0,8-3.584,8-8v-8c0-22.056-17.944-40-40-40V144
		C462.056,144,480,126.056,480,104z M464,464H16c0-13.232,10.768-24,24-24h400C453.232,440,464,450.768,464,464z M104,376H56V144
		h112v24c0,10.416,6.712,19.216,16,22.528V208c0,4.416,3.584,8,8,8s8-3.584,8-8v-16h80v16c0,4.416,3.584,8,8,8s8-3.584,8-8v-17.472
		c9.288-3.312,16-12.112,16-22.528v-24h112v232h-48c-4.416,0-8,3.584-8,8s3.584,8,8,8h48v32h-96v-8c0-13.232-10.768-24-24-24h-8.88
		c4.696-4.592,8.544-10.008,11.4-16H320c13.232,0,24-10.768,24-24v-56c0-13.232-10.768-24-24-24h-8v-16c0-4.416-3.584-8-8-8H176
		c-4.416,0-8,3.584-8,8v96c0,15.664,6.48,29.824,16.88,40H176c-13.232,0-24,10.768-24,24v8H56v-32h48c4.416,0,8-3.584,8-8
		S108.416,376,104,376z M184,168v-24h112v24c0,4.408-3.592,8-8,8h-96C187.592,176,184,172.408,184,168z M184,352v-88h112v88
		c0,22.056-17.944,40-40,40h-32C201.944,392,184,374.056,184,352z M312,288h8c4.408,0,8,3.592,8,8v56c0,4.408-3.592,8-8,8h-8.64
		c0.376-2.624,0.64-5.28,0.64-8V288z M304,408c4.408,0,8,3.592,8,8v8H168v-8c0-4.408,3.592-8,8-8H304z M40,128
		c-13.232,0-24-10.768-24-24V40c0-13.232,10.768-24,24-24h400c13.232,0,24,10.768,24,24v64c0,13.232-10.768,24-24,24H40z"/>
</g>
<g>
	<circle style="fill:#FCB23C;" cx="248" cy="72" r="30.72"/>
	<circle style="fill:#FCB23C;" cx="96" cy="72" r="30.72"/>
	<circle style="fill:#FCB23C;" cx="384" cy="72" r="30.72"/>
</g>
<g>
	<path style="fill:#132C47;" d="M248,33.28c-18.6,0-34.168,13.2-37.864,30.72H200c-4.416,0-8,3.584-8,8s3.584,8,8,8h10.136
		c3.696,17.52,19.264,30.72,37.864,30.72c21.344,0,38.72-17.368,38.72-38.72S269.344,33.28,248,33.28z M248,94.72
		c-9.704,0-17.936-6.144-21.192-14.72H232c4.416,0,8-3.584,8-8s-3.584-8-8-8h-5.192c3.256-8.576,11.488-14.72,21.192-14.72
		c12.528,0,22.72,10.192,22.72,22.72S260.528,94.72,248,94.72z"/>
	<path style="fill:#132C47;" d="M144,64h-10.136C130.168,46.48,114.6,33.28,96,33.28c-21.344,0-38.72,17.368-38.72,38.72
		S74.648,110.72,96,110.72c18.6,0,34.168-13.2,37.864-30.72H144c4.416,0,8-3.584,8-8S148.416,64,144,64z M96,94.72
		c-12.528,0-22.72-10.192-22.72-22.72S83.472,49.28,96,49.28c9.704,0,17.936,6.144,21.192,14.72H112c-4.416,0-8,3.584-8,8
		s3.584,8,8,8h5.192C113.936,88.576,105.704,94.72,96,94.72z"/>
	<path style="fill:#132C47;" d="M384,33.28c-18.6,0-34.168,13.2-37.864,30.72H336c-4.416,0-8,3.584-8,8s3.584,8,8,8h10.136
		c3.696,17.52,19.264,30.72,37.864,30.72c21.344,0,38.72-17.368,38.72-38.72S405.344,33.28,384,33.28z M384,94.72
		c-9.704,0-17.936-6.144-21.192-14.72H368c4.416,0,8-3.584,8-8s-3.584-8-8-8h-5.192c3.256-8.576,11.488-14.72,21.192-14.72
		c12.528,0,22.72,10.192,22.72,22.72S396.528,94.72,384,94.72z"/>
</g>
</svg>